<svg viewBox="0 0 32 32" xmlns="http://www.w3.org/2000/svg">
  <rect x="0" y="0" width="32" height="32" fill="#FFFFFF"/>
  
  <!-- Tower Crane - Yellow -->
  <g transform="translate(2, 2) scale(0.875)">
    <!-- Tower/Mast -->
    <rect x="14" y="10" width="4" height="18" fill="#FFD700"/>
    
    <!-- Tower internal structure -->
    <line x1="14" y1="13" x2="18" y2="13" stroke="#E5C100" stroke-width="0.5"/>
    <line x1="14" y1="16" x2="18" y2="16" stroke="#E5C100" stroke-width="0.5"/>
    <line x1="14" y1="19" x2="18" y2="19" stroke="#E5C100" stroke-width="0.5"/>
    <line x1="14" y1="22" x2="18" y2="22" stroke="#E5C100" stroke-width="0.5"/>
    <line x1="14" y1="25" x2="18" y2="25" stroke="#E5C100" stroke-width="0.5"/>
    
    <!-- Base -->
    <rect x="12" y="28" width="8" height="2" fill="#FFD700"/>
    
    <!-- Jib (front arm) -->
    <rect x="14" y="6" width="14" height="2" fill="#FFD700"/>
    
    <!-- Jib structural supports -->
    <line x1="14" y1="6" x2="14" y2="10" stroke="#2C3E50" stroke-width="0.8"/>
    <line x1="16" y1="6" x2="16" y2="10" stroke="#2C3E50" stroke-width="0.8"/>
    <line x1="18" y1="6" x2="16" y2="13" stroke="#2C3E50" stroke-width="0.8"/>
    <line x1="20" y1="6" x2="16" y2="16" stroke="#2C3E50" stroke-width="0.8"/>
    <line x1="22" y1="6" x2="16" y2="19" stroke="#2C3E50" stroke-width="0.8"/>
    <line x1="24" y1="6" x2="16" y2="22" stroke="#2C3E50" stroke-width="0.8"/>
    <line x1="26" y1="6" x2="16" y2="25" stroke="#2C3E50" stroke-width="0.8"/>
    
    <!-- Counter Jib (back arm) -->
    <rect x="4" y="6" width="10" height="2" fill="#FFD700"/>
    
    <!-- Counter Jib supports -->
    <line x1="14" y1="6" x2="14" y2="10" stroke="#2C3E50" stroke-width="0.8"/>
    <line x1="12" y1="6" x2="14" y2="10" stroke="#2C3E50" stroke-width="0.8"/>
    <line x1="10" y1="6" x2="14" y2="13" stroke="#2C3E50" stroke-width="0.8"/>
    <line x1="8" y1="6" x2="14" y2="16" stroke="#2C3E50" stroke-width="0.8"/>
    <line x1="6" y1="6" x2="14" y2="19" stroke="#2C3E50" stroke-width="0.8"/>
    <line x1="4" y1="6" x2="14" y2="22" stroke="#2C3E50" stroke-width="0.8"/>
    
    <!-- Counterweight -->
    <rect x="4" y="4" width="3" height="4" fill="#E5C100"/>
    
    <!-- Trolley on jib -->
    <rect x="24" y="4" width="3" height="4" fill="#E5C100"/>
    
    <!-- Hook and Cable -->
    <line x1="25.5" y1="8" x2="25.5" y2="16" stroke="#2C3E50" stroke-width="0.8"/>
    <path d="M24.5,17 C24.5,16 26.5,16 26.5,17 L26,18 C26,18.5 25,18.5 25,18 Z" fill="#E5C100"/>
    
    <!-- Operator Cab -->
    <rect x="12" y="10" width="6" height="3" fill="#E5C100"/>
  </g>
</svg>
